# xmcd CD database file
#
# Track frame offsets:
#	150
#	16465
#	36608
#	58620
#	78265
#	102150
#	117463
#	135698
#	152075
#	172058
#	193270
#	210425
#	229535
#	249665
#	268148
#	285218
#	300028
#	319700
#
# Disc length: 4522 seconds
#
# Revision: 2
# Processed by: cddbd v1.5.2PL0 Copyright (c) Steve Scherf et al.
# Submitted via: CDex 1.70beta2
#
DISCID=f511a812
DTITLE=Various Artist - DIVA
DYEAR=2002
DGENRE=
TTITLE0=NO SCRUBS - TLC
TTITLE1=ALL AROUND THE WORLD - LISA STANSFIELD
TTITLE2=BEFORE YOU WALK OUT OF MY LIFE - MONICA
TTITLE3=MY LOVE IS YOUR LOVE - WHITNEY HOUSTON
TTITLE4=A WHITER SHADE OF PALE - ANNIE LENNOX
TTITLE5=I'M A SLAVE 4 U - BRITNEY SPEARS
TTITLE6=I'M LIKE A BIRD - NELLY FURTADO
TTITLE7=GENIE IN A BOTTLE - CHRISTINA AGUILERA
TTITLE8=ANGEL - SARAH MCLACHLAN
TTITLE9=THAT DAY - NATALIE IMBRUGLIA
TTITLE10=A CHANGE WOULD DO YOU GOOD - SHERYL CROW
TTITLE11=HERE WITH ME - DIDO
TTITLE12=A ROSE IS STILL A ROSE - ARETHA FRANKLIN
TTITLE13=TELL ME HOW YOU FEEL - JOY ENRIQUEZ
TTITLE14=ON and ON - ERYKAH BADU
TTITLE15=FALLIN' - ALICIA KEYS
TTITLE16=NOBODY'S SUPPOSED TO BE HERE - DEBORAH COX
TTITLE17=HOW COULD AN ANGEL BREAK MY HEART - TONY BRAXTON
EXTD=YEAR: 2002
EXTT0=
EXTT1=
EXTT2=
EXTT3=
EXTT4=
EXTT5=
EXTT6=
EXTT7=
EXTT8=
EXTT9=
EXTT10=
EXTT11=
EXTT12=
EXTT13=
EXTT14=
EXTT15=
EXTT16=
EXTT17=
PLAYORDER=
